<svg xmlns="http://www.w3.org/2000/svg" width="37" height="38" viewBox="0 0 37 38">
    <g fill="#B8B9BF" fill-rule="evenodd">
        <path d="M7.692 22.077c0-7.648 6.199-13.846 13.846-13.846 2.848 0 5.493.861 7.693 2.335v-6.95c0-1.696-1.38-3.078-3.077-3.078H3.077C1.38.538 0 1.92 0 3.615v23.077c0 1.697 1.38 3.077 3.077 3.077h6.95c-1.473-2.2-2.335-4.844-2.335-7.692"/>
        <path d="M25.89 19.901L23.713 17.724 21.538 19.901 19.362 17.724 17.187 19.901 19.362 22.077 17.187 24.252 19.362 26.429 21.538 24.252 23.713 26.429 25.89 24.252 23.713 22.077z"/>
        <path d="M13.846 22.077c0-4.242 3.45-7.692 7.692-7.692s7.693 3.45 7.693 7.692c0 4.241-3.451 7.692-7.693 7.692-4.241 0-7.692-3.45-7.692-7.692zm23.132 12.23l-6.4-6.398c1.09-1.683 1.73-3.683 1.73-5.832 0-5.939-4.831-10.77-10.77-10.77-5.938 0-10.769 4.831-10.769 10.77 0 5.938 4.831 10.77 10.77 10.77 2.12 0 4.095-.625 5.763-1.689l6.412 6.413 3.264-3.263z"/>
    </g>
</svg>
